<svg width="112" height="212" viewBox="0 0 112 212" fill="none" xmlns="http://www.w3.org/2000/svg">
<path d="M0.000790941 198.614C0.0843618 206.083 6.58165 212 14.7195 212H96.7241C104.93 212 111.359 206.083 111.443 198.614C111.568 190.999 105.097 185.025 96.7241 185.025H73.3259V87.9931C73.3259 80.285 67.1659 74.1794 59.4087 74.1794H18.6659C10.2482 74.1794 3.75386 80.1298 3.83743 87.695C3.96279 95.2558 10.4153 101.154 18.6659 101.154H44.6714V185.025H14.7195C6.41451 185.025 -0.0824483 190.999 0.000790941 198.614ZM54.1686 41.0247C65.5376 41.0247 74.5334 31.9038 74.5334 20.5345C74.5334 9.12381 65.5376 0 54.1686 0C42.7576 0 33.652 9.12381 33.652 20.5345C33.652 31.9038 42.7576 41.0247 54.1686 41.0247Z" fill="white"/>
</svg>
