<svg width="3423" height="3423" viewBox="0 0 3423 3423" fill="none" xmlns="http://www.w3.org/2000/svg">
<path d="M31.793 3373.22C40.2652 3373.22 47.1338 3380.09 47.1338 3388.56C47.1337 3397.03 40.2652 3403.9 31.793 3403.9C23.3206 3403.9 16.4522 3397.03 16.4521 3388.56C16.4521 3380.09 23.3206 3373.22 31.793 3373.22Z" fill="white" stroke="white" stroke-width="6.41011" stroke-miterlimit="10"/>
<path d="M312.627 3373.22C321.1 3373.22 327.968 3380.09 327.968 3388.56C327.968 3397.03 321.1 3403.9 312.627 3403.9C304.155 3403.9 297.287 3397.03 297.287 3388.56C297.287 3380.09 304.155 3373.22 312.627 3373.22Z" fill="white" stroke="white" stroke-width="6.41011" stroke-miterlimit="10"/>
<path d="M590.812 3373.22C599.285 3373.22 606.153 3380.09 606.153 3388.56C606.153 3397.03 599.285 3403.9 590.812 3403.9C582.34 3403.9 575.472 3397.03 575.472 3388.56C575.472 3380.09 582.34 3373.22 590.812 3373.22Z" fill="white" stroke="white" stroke-width="6.41011" stroke-miterlimit="10"/>
<path d="M871.646 3373.22C880.119 3373.22 886.986 3380.09 886.986 3388.56C886.986 3397.03 880.119 3403.9 871.646 3403.9C863.174 3403.9 856.306 3397.03 856.306 3388.56C856.306 3380.09 863.174 3373.22 871.646 3373.22Z" fill="white" stroke="white" stroke-width="6.41011" stroke-miterlimit="10"/>
<path d="M1152.48 3373.22C1160.95 3373.22 1167.82 3380.09 1167.82 3388.56C1167.82 3397.03 1160.95 3403.9 1152.48 3403.9C1144.01 3403.9 1137.14 3397.03 1137.14 3388.56C1137.14 3380.09 1144.01 3373.22 1152.48 3373.22Z" fill="white" stroke="white" stroke-width="6.41011" stroke-miterlimit="10"/>
<path d="M1430.67 3373.22C1439.14 3373.22 1446.01 3380.09 1446.01 3388.56C1446.01 3397.03 1439.14 3403.9 1430.67 3403.9C1422.19 3403.9 1415.33 3397.03 1415.33 3388.56C1415.33 3380.09 1422.19 3373.22 1430.67 3373.22Z" fill="white" stroke="white" stroke-width="6.41011" stroke-miterlimit="10"/>
<path d="M1711.5 3373.22C1719.97 3373.22 1726.84 3380.09 1726.84 3388.56C1726.84 3397.03 1719.97 3403.9 1711.5 3403.9C1703.03 3403.9 1696.16 3397.03 1696.16 3388.56C1696.16 3380.09 1703.03 3373.22 1711.5 3373.22Z" fill="white" stroke="white" stroke-width="6.41011" stroke-miterlimit="10"/>
<path d="M1989.69 3373.22C1998.16 3373.22 2005.03 3380.09 2005.03 3388.56C2005.03 3397.03 1998.16 3403.9 1989.69 3403.9C1981.21 3403.9 1974.34 3397.03 1974.34 3388.56C1974.34 3380.09 1981.21 3373.22 1989.69 3373.22Z" fill="white" stroke="white" stroke-width="6.41011" stroke-miterlimit="10"/>
<path d="M2270.52 3373.22C2278.99 3373.22 2285.86 3380.09 2285.86 3388.56C2285.86 3397.03 2278.99 3403.9 2270.52 3403.9C2262.05 3403.9 2255.18 3397.03 2255.18 3388.56C2255.18 3380.09 2262.05 3373.22 2270.52 3373.22Z" fill="white" stroke="white" stroke-width="6.41011" stroke-miterlimit="10"/>
<path d="M2551.35 3373.22C2559.83 3373.22 2566.69 3380.09 2566.69 3388.56C2566.69 3397.03 2559.83 3403.9 2551.35 3403.9C2542.88 3403.9 2536.01 3397.03 2536.01 3388.56C2536.01 3380.09 2542.88 3373.22 2551.35 3373.22Z" fill="white" stroke="white" stroke-width="6.41011" stroke-miterlimit="10"/>
<path d="M2829.54 3373.22C2838.01 3373.22 2844.88 3380.09 2844.88 3388.56C2844.88 3397.03 2838.01 3403.9 2829.54 3403.9C2821.07 3403.9 2814.2 3397.03 2814.2 3388.56C2814.2 3380.09 2821.07 3373.22 2829.54 3373.22Z" fill="white" stroke="white" stroke-width="6.41011" stroke-miterlimit="10"/>
<path d="M3110.37 3373.22C3118.85 3373.22 3125.71 3380.09 3125.71 3388.56C3125.71 3397.03 3118.85 3403.9 3110.37 3403.9C3101.9 3403.9 3095.03 3397.03 3095.03 3388.56C3095.03 3380.09 3101.9 3373.22 3110.37 3373.22Z" fill="white" stroke="white" stroke-width="6.41011" stroke-miterlimit="10"/>
<path d="M3388.56 3373.22C3397.03 3373.22 3403.9 3380.09 3403.9 3388.56C3403.9 3397.03 3397.03 3403.9 3388.56 3403.9C3380.09 3403.9 3373.22 3397.03 3373.22 3388.56C3373.22 3380.09 3380.09 3373.22 3388.56 3373.22Z" fill="white" stroke="white" stroke-width="6.41011" stroke-miterlimit="10"/>
<path d="M31.793 3095.03C40.2652 3095.03 47.1338 3101.9 47.1338 3110.37C47.1337 3118.85 40.2652 3125.71 31.793 3125.71C23.3206 3125.71 16.4522 3118.85 16.4521 3110.37C16.4521 3101.9 23.3206 3095.03 31.793 3095.03Z" fill="white" stroke="white" stroke-width="6.41011" stroke-miterlimit="10"/>
<path d="M312.627 3095.03C321.1 3095.03 327.968 3101.9 327.968 3110.37C327.968 3118.85 321.1 3125.71 312.627 3125.71C304.155 3125.71 297.287 3118.85 297.287 3110.37C297.287 3101.9 304.155 3095.03 312.627 3095.03Z" fill="white" stroke="white" stroke-width="6.41011" stroke-miterlimit="10"/>
<path d="M590.812 3095.03C599.285 3095.03 606.153 3101.9 606.153 3110.37C606.153 3118.85 599.285 3125.71 590.812 3125.71C582.34 3125.71 575.472 3118.85 575.472 3110.37C575.472 3101.9 582.34 3095.03 590.812 3095.03Z" fill="white" stroke="white" stroke-width="6.41011" stroke-miterlimit="10"/>
<path d="M871.646 3095.03C880.119 3095.03 886.986 3101.9 886.986 3110.37C886.986 3118.85 880.119 3125.71 871.646 3125.71C863.174 3125.71 856.306 3118.85 856.306 3110.37C856.306 3101.9 863.174 3095.03 871.646 3095.03Z" fill="white" stroke="white" stroke-width="6.41011" stroke-miterlimit="10"/>
<path d="M1152.48 3095.03C1160.95 3095.03 1167.82 3101.9 1167.82 3110.37C1167.82 3118.85 1160.95 3125.71 1152.48 3125.71C1144.01 3125.71 1137.14 3118.85 1137.14 3110.37C1137.14 3101.9 1144.01 3095.03 1152.48 3095.03Z" fill="white" stroke="white" stroke-width="6.41011" stroke-miterlimit="10"/>
<path d="M1430.67 3095.03C1439.14 3095.03 1446.01 3101.9 1446.01 3110.37C1446.01 3118.85 1439.14 3125.71 1430.67 3125.71C1422.19 3125.71 1415.33 3118.85 1415.33 3110.37C1415.33 3101.9 1422.19 3095.03 1430.67 3095.03Z" fill="white" stroke="white" stroke-width="6.41011" stroke-miterlimit="10"/>
<path d="M1711.5 3095.03C1719.97 3095.03 1726.84 3101.9 1726.84 3110.37C1726.84 3118.85 1719.97 3125.71 1711.5 3125.71C1703.03 3125.71 1696.16 3118.85 1696.16 3110.37C1696.16 3101.9 1703.03 3095.03 1711.5 3095.03Z" fill="white" stroke="white" stroke-width="6.41011" stroke-miterlimit="10"/>
<path d="M1989.69 3095.03C1998.16 3095.03 2005.03 3101.9 2005.03 3110.37C2005.03 3118.85 1998.16 3125.71 1989.69 3125.71C1981.21 3125.71 1974.34 3118.85 1974.34 3110.37C1974.34 3101.9 1981.21 3095.03 1989.69 3095.03Z" fill="white" stroke="white" stroke-width="6.41011" stroke-miterlimit="10"/>
<path d="M2270.52 3095.03C2278.99 3095.03 2285.86 3101.9 2285.86 3110.37C2285.86 3118.85 2278.99 3125.71 2270.52 3125.71C2262.05 3125.71 2255.18 3118.85 2255.18 3110.37C2255.18 3101.9 2262.05 3095.03 2270.52 3095.03Z" fill="white" stroke="white" stroke-width="6.41011" stroke-miterlimit="10"/>
<path d="M2551.35 3095.03C2559.83 3095.03 2566.69 3101.9 2566.69 3110.37C2566.69 3118.85 2559.83 3125.71 2551.35 3125.71C2542.88 3125.71 2536.01 3118.85 2536.01 3110.37C2536.01 3101.9 2542.88 3095.03 2551.35 3095.03Z" fill="white" stroke="white" stroke-width="6.41011" stroke-miterlimit="10"/>
<path d="M2829.54 3095.03C2838.01 3095.03 2844.88 3101.9 2844.88 3110.37C2844.88 3118.85 2838.01 3125.71 2829.54 3125.71C2821.07 3125.71 2814.2 3118.85 2814.2 3110.37C2814.2 3101.9 2821.07 3095.03 2829.54 3095.03Z" fill="white" stroke="white" stroke-width="6.41011" stroke-miterlimit="10"/>
<path d="M3110.37 3095.03C3118.85 3095.03 3125.71 3101.9 3125.71 3110.37C3125.71 3118.85 3118.85 3125.71 3110.37 3125.71C3101.9 3125.71 3095.03 3118.85 3095.03 3110.37C3095.03 3101.9 3101.9 3095.03 3110.37 3095.03Z" fill="white" stroke="white" stroke-width="6.41011" stroke-miterlimit="10"/>
<path d="M3388.56 3095.03C3397.03 3095.03 3403.9 3101.9 3403.9 3110.37C3403.9 3118.85 3397.03 3125.71 3388.56 3125.71C3380.09 3125.71 3373.22 3118.85 3373.22 3110.37C3373.22 3101.9 3380.09 3095.03 3388.56 3095.03Z" fill="white" stroke="white" stroke-width="6.41011" stroke-miterlimit="10"/>
<path d="M31.793 2814.2C40.2652 2814.2 47.1338 2821.07 47.1338 2829.54C47.1337 2838.01 40.2652 2844.88 31.793 2844.88C23.3206 2844.88 16.4522 2838.01 16.4521 2829.54C16.4521 2821.07 23.3206 2814.2 31.793 2814.2Z" fill="white" stroke="white" stroke-width="6.41011" stroke-miterlimit="10"/>
<path d="M312.627 2814.2C321.1 2814.2 327.968 2821.07 327.968 2829.54C327.968 2838.01 321.1 2844.88 312.627 2844.88C304.155 2844.88 297.287 2838.01 297.287 2829.54C297.287 2821.07 304.155 2814.2 312.627 2814.2Z" fill="white" stroke="white" stroke-width="6.41011" stroke-miterlimit="10"/>
<path d="M590.812 2814.2C599.285 2814.2 606.153 2821.07 606.153 2829.54C606.153 2838.01 599.285 2844.88 590.812 2844.88C582.34 2844.88 575.472 2838.01 575.472 2829.54C575.472 2821.07 582.34 2814.2 590.812 2814.2Z" fill="white" stroke="white" stroke-width="6.41011" stroke-miterlimit="10"/>
<path d="M871.646 2814.2C880.119 2814.2 886.986 2821.07 886.986 2829.54C886.986 2838.01 880.119 2844.88 871.646 2844.88C863.174 2844.88 856.306 2838.01 856.306 2829.54C856.306 2821.07 863.174 2814.2 871.646 2814.2Z" fill="white" stroke="white" stroke-width="6.41011" stroke-miterlimit="10"/>
<path d="M1152.48 2814.2C1160.95 2814.2 1167.82 2821.07 1167.82 2829.54C1167.82 2838.01 1160.95 2844.88 1152.48 2844.88C1144.01 2844.88 1137.14 2838.01 1137.14 2829.54C1137.14 2821.07 1144.01 2814.2 1152.48 2814.2Z" fill="white" stroke="white" stroke-width="6.41011" stroke-miterlimit="10"/>
<path d="M1430.67 2814.2C1439.14 2814.2 1446.01 2821.07 1446.01 2829.54C1446.01 2838.01 1439.14 2844.88 1430.67 2844.88C1422.19 2844.88 1415.33 2838.01 1415.33 2829.54C1415.33 2821.07 1422.19 2814.2 1430.67 2814.2Z" fill="white" stroke="white" stroke-width="6.41011" stroke-miterlimit="10"/>
<path d="M1711.5 2814.2C1719.97 2814.2 1726.84 2821.07 1726.84 2829.54C1726.84 2838.01 1719.97 2844.88 1711.5 2844.88C1703.03 2844.88 1696.16 2838.01 1696.16 2829.54C1696.16 2821.07 1703.03 2814.2 1711.5 2814.2Z" fill="white" stroke="white" stroke-width="6.41011" stroke-miterlimit="10"/>
<path d="M1989.69 2814.2C1998.16 2814.2 2005.03 2821.07 2005.03 2829.54C2005.03 2838.01 1998.16 2844.88 1989.69 2844.88C1981.21 2844.88 1974.34 2838.01 1974.34 2829.54C1974.34 2821.07 1981.21 2814.2 1989.69 2814.2Z" fill="white" stroke="white" stroke-width="6.41011" stroke-miterlimit="10"/>
<path d="M2270.52 2814.2C2278.99 2814.2 2285.86 2821.07 2285.86 2829.54C2285.86 2838.01 2278.99 2844.88 2270.52 2844.88C2262.05 2844.88 2255.18 2838.01 2255.18 2829.54C2255.18 2821.07 2262.05 2814.2 2270.52 2814.2Z" fill="white" stroke="white" stroke-width="6.41011" stroke-miterlimit="10"/>
<path d="M2551.35 2814.2C2559.83 2814.2 2566.69 2821.07 2566.69 2829.54C2566.69 2838.01 2559.83 2844.88 2551.35 2844.88C2542.88 2844.88 2536.01 2838.01 2536.01 2829.54C2536.01 2821.07 2542.88 2814.2 2551.35 2814.2Z" fill="white" stroke="white" stroke-width="6.41011" stroke-miterlimit="10"/>
<path d="M2829.54 2814.2C2838.01 2814.2 2844.88 2821.07 2844.88 2829.54C2844.88 2838.01 2838.01 2844.88 2829.54 2844.88C2821.07 2844.88 2814.2 2838.01 2814.2 2829.54C2814.2 2821.07 2821.07 2814.2 2829.54 2814.2Z" fill="white" stroke="white" stroke-width="6.41011" stroke-miterlimit="10"/>
<path d="M3110.37 2814.2C3118.85 2814.2 3125.71 2821.07 3125.71 2829.54C3125.71 2838.01 3118.85 2844.88 3110.37 2844.88C3101.9 2844.88 3095.03 2838.01 3095.03 2829.54C3095.03 2821.07 3101.9 2814.2 3110.37 2814.2Z" fill="white" stroke="white" stroke-width="6.41011" stroke-miterlimit="10"/>
<path d="M3388.56 2814.2C3397.03 2814.2 3403.9 2821.07 3403.9 2829.54C3403.9 2838.01 3397.03 2844.88 3388.56 2844.88C3380.09 2844.88 3373.22 2838.01 3373.22 2829.54C3373.22 2821.07 3380.09 2814.2 3388.56 2814.2Z" fill="white" stroke="white" stroke-width="6.41011" stroke-miterlimit="10"/>
<path d="M31.793 2533.36C40.2653 2533.36 47.1338 2540.23 47.1338 2548.7C47.1336 2557.18 40.2651 2564.05 31.793 2564.05C23.3207 2564.05 16.4523 2557.18 16.4521 2548.7C16.4521 2540.23 23.3206 2533.36 31.793 2533.36Z" fill="white" stroke="white" stroke-width="6.41011" stroke-miterlimit="10"/>
<path d="M312.627 2533.36C321.1 2533.36 327.968 2540.23 327.968 2548.7C327.968 2557.18 321.1 2564.05 312.627 2564.05C304.155 2564.05 297.287 2557.18 297.287 2548.7C297.287 2540.23 304.155 2533.36 312.627 2533.36Z" fill="white" stroke="white" stroke-width="6.41011" stroke-miterlimit="10"/>
<path d="M590.812 2533.36C599.285 2533.36 606.153 2540.23 606.153 2548.7C606.153 2557.18 599.285 2564.05 590.812 2564.05C582.34 2564.05 575.472 2557.18 575.472 2548.7C575.472 2540.23 582.34 2533.36 590.812 2533.36Z" fill="white" stroke="white" stroke-width="6.41011" stroke-miterlimit="10"/>
<path d="M871.646 2533.36C880.119 2533.36 886.986 2540.23 886.986 2548.7C886.986 2557.18 880.119 2564.05 871.646 2564.05C863.174 2564.05 856.306 2557.18 856.306 2548.7C856.306 2540.23 863.174 2533.36 871.646 2533.36Z" fill="white" stroke="white" stroke-width="6.41011" stroke-miterlimit="10"/>
<path d="M1152.48 2533.36C1160.95 2533.36 1167.82 2540.23 1167.82 2548.7C1167.82 2557.18 1160.95 2564.05 1152.48 2564.05C1144.01 2564.05 1137.14 2557.18 1137.14 2548.7C1137.14 2540.23 1144.01 2533.36 1152.48 2533.36Z" fill="white" stroke="white" stroke-width="6.41011" stroke-miterlimit="10"/>
<path d="M1430.67 2533.36C1439.14 2533.36 1446.01 2540.23 1446.01 2548.7C1446.01 2557.18 1439.14 2564.05 1430.67 2564.05C1422.19 2564.05 1415.33 2557.18 1415.33 2548.7C1415.33 2540.23 1422.19 2533.36 1430.67 2533.36Z" fill="white" stroke="white" stroke-width="6.41011" stroke-miterlimit="10"/>
<path d="M1711.5 2533.36C1719.97 2533.36 1726.84 2540.23 1726.84 2548.7C1726.84 2557.18 1719.97 2564.05 1711.5 2564.05C1703.03 2564.05 1696.16 2557.18 1696.16 2548.7C1696.16 2540.23 1703.03 2533.36 1711.5 2533.36Z" fill="white" stroke="white" stroke-width="6.41011" stroke-miterlimit="10"/>
<path d="M1989.69 2533.36C1998.16 2533.36 2005.03 2540.23 2005.03 2548.7C2005.03 2557.18 1998.16 2564.05 1989.69 2564.05C1981.21 2564.05 1974.34 2557.18 1974.34 2548.7C1974.34 2540.23 1981.21 2533.36 1989.69 2533.36Z" fill="white" stroke="white" stroke-width="6.41011" stroke-miterlimit="10"/>
<path d="M2270.52 2533.36C2278.99 2533.36 2285.86 2540.23 2285.86 2548.7C2285.86 2557.18 2278.99 2564.05 2270.52 2564.05C2262.05 2564.05 2255.18 2557.18 2255.18 2548.7C2255.18 2540.23 2262.05 2533.36 2270.52 2533.36Z" fill="white" stroke="white" stroke-width="6.41011" stroke-miterlimit="10"/>
<path d="M2551.35 2533.36C2559.83 2533.36 2566.69 2540.23 2566.69 2548.7C2566.69 2557.18 2559.83 2564.05 2551.35 2564.05C2542.88 2564.05 2536.01 2557.18 2536.01 2548.7C2536.01 2540.23 2542.88 2533.36 2551.35 2533.36Z" fill="white" stroke="white" stroke-width="6.41011" stroke-miterlimit="10"/>
<path d="M2829.54 2533.36C2838.01 2533.36 2844.88 2540.23 2844.88 2548.7C2844.88 2557.18 2838.01 2564.05 2829.54 2564.05C2821.07 2564.05 2814.2 2557.18 2814.2 2548.7C2814.2 2540.23 2821.07 2533.36 2829.54 2533.36Z" fill="white" stroke="white" stroke-width="6.41011" stroke-miterlimit="10"/>
<path d="M3110.37 2533.36C3118.85 2533.36 3125.71 2540.23 3125.71 2548.7C3125.71 2557.18 3118.85 2564.05 3110.37 2564.05C3101.9 2564.05 3095.03 2557.18 3095.03 2548.7C3095.03 2540.23 3101.9 2533.36 3110.37 2533.36Z" fill="white" stroke="white" stroke-width="6.41011" stroke-miterlimit="10"/>
<path d="M3388.56 2533.36C3397.03 2533.36 3403.9 2540.23 3403.9 2548.7C3403.9 2557.18 3397.03 2564.05 3388.56 2564.05C3380.09 2564.05 3373.22 2557.18 3373.22 2548.7C3373.22 2540.23 3380.09 2533.36 3388.56 2533.36Z" fill="white" stroke="white" stroke-width="6.41011" stroke-miterlimit="10"/>
<path d="M31.793 2255.18C40.2653 2255.18 47.1338 2262.05 47.1338 2270.52C47.1336 2278.99 40.2651 2285.86 31.793 2285.86C23.3207 2285.86 16.4523 2278.99 16.4521 2270.52C16.4521 2262.05 23.3206 2255.18 31.793 2255.18Z" fill="white" stroke="white" stroke-width="6.41011" stroke-miterlimit="10"/>
<path d="M312.627 2255.18C321.1 2255.18 327.968 2262.05 327.968 2270.52C327.968 2278.99 321.1 2285.86 312.627 2285.86C304.155 2285.86 297.287 2278.99 297.287 2270.52C297.287 2262.05 304.155 2255.18 312.627 2255.18Z" fill="white" stroke="white" stroke-width="6.41011" stroke-miterlimit="10"/>
<path d="M590.812 2255.18C599.285 2255.18 606.153 2262.05 606.153 2270.52C606.153 2278.99 599.285 2285.86 590.812 2285.86C582.34 2285.86 575.472 2278.99 575.472 2270.52C575.472 2262.05 582.34 2255.18 590.812 2255.18Z" fill="white" stroke="white" stroke-width="6.41011" stroke-miterlimit="10"/>
<path d="M871.646 2255.18C880.119 2255.18 886.986 2262.05 886.986 2270.52C886.986 2278.99 880.119 2285.86 871.646 2285.86C863.174 2285.86 856.306 2278.99 856.306 2270.52C856.306 2262.05 863.174 2255.18 871.646 2255.18Z" fill="white" stroke="white" stroke-width="6.41011" stroke-miterlimit="10"/>
<path d="M1152.48 2255.18C1160.95 2255.18 1167.82 2262.05 1167.82 2270.52C1167.82 2278.99 1160.95 2285.86 1152.48 2285.86C1144.01 2285.86 1137.14 2278.99 1137.14 2270.52C1137.14 2262.05 1144.01 2255.18 1152.48 2255.18Z" fill="white" stroke="white" stroke-width="6.41011" stroke-miterlimit="10"/>
<path d="M1430.67 2255.18C1439.14 2255.18 1446.01 2262.05 1446.01 2270.52C1446.01 2278.99 1439.14 2285.86 1430.67 2285.86C1422.19 2285.86 1415.33 2278.99 1415.33 2270.52C1415.33 2262.05 1422.19 2255.18 1430.67 2255.18Z" fill="white" stroke="white" stroke-width="6.41011" stroke-miterlimit="10"/>
<path d="M1711.5 2255.18C1719.97 2255.18 1726.84 2262.05 1726.84 2270.52C1726.84 2278.99 1719.97 2285.86 1711.5 2285.86C1703.03 2285.86 1696.16 2278.99 1696.16 2270.52C1696.16 2262.05 1703.03 2255.18 1711.5 2255.18Z" fill="white" stroke="white" stroke-width="6.41011" stroke-miterlimit="10"/>
<path d="M1989.69 2255.18C1998.16 2255.18 2005.03 2262.05 2005.03 2270.52C2005.03 2278.99 1998.16 2285.86 1989.69 2285.86C1981.21 2285.86 1974.34 2278.99 1974.34 2270.52C1974.34 2262.05 1981.21 2255.18 1989.69 2255.18Z" fill="white" stroke="white" stroke-width="6.41011" stroke-miterlimit="10"/>
<path d="M2270.52 2255.18C2278.99 2255.18 2285.86 2262.05 2285.86 2270.52C2285.86 2278.99 2278.99 2285.86 2270.52 2285.86C2262.05 2285.86 2255.18 2278.99 2255.18 2270.52C2255.18 2262.05 2262.05 2255.18 2270.52 2255.18Z" fill="white" stroke="white" stroke-width="6.41011" stroke-miterlimit="10"/>
<path d="M2551.35 2255.18C2559.83 2255.18 2566.69 2262.05 2566.69 2270.52C2566.69 2278.99 2559.83 2285.86 2551.35 2285.86C2542.88 2285.86 2536.01 2278.99 2536.01 2270.52C2536.01 2262.05 2542.88 2255.18 2551.35 2255.18Z" fill="white" stroke="white" stroke-width="6.41011" stroke-miterlimit="10"/>
<path d="M2829.54 2255.18C2838.01 2255.18 2844.88 2262.05 2844.88 2270.52C2844.88 2278.99 2838.01 2285.86 2829.54 2285.86C2821.07 2285.86 2814.2 2278.99 2814.2 2270.52C2814.2 2262.05 2821.07 2255.18 2829.54 2255.18Z" fill="white" stroke="white" stroke-width="6.41011" stroke-miterlimit="10"/>
<path d="M3110.37 2255.18C3118.85 2255.18 3125.71 2262.05 3125.71 2270.52C3125.71 2278.99 3118.85 2285.86 3110.37 2285.86C3101.9 2285.86 3095.03 2278.99 3095.03 2270.52C3095.03 2262.05 3101.9 2255.18 3110.37 2255.18Z" fill="white" stroke="white" stroke-width="6.41011" stroke-miterlimit="10"/>
<path d="M3388.56 2255.18C3397.03 2255.18 3403.9 2262.05 3403.9 2270.52C3403.9 2278.99 3397.03 2285.86 3388.56 2285.86C3380.09 2285.86 3373.22 2278.99 3373.22 2270.52C3373.22 2262.05 3380.09 2255.18 3388.56 2255.18Z" fill="white" stroke="white" stroke-width="6.41011" stroke-miterlimit="10"/>
<path d="M31.793 1974.34C40.2653 1974.34 47.1338 1981.21 47.1338 1989.69C47.1336 1998.16 40.2651 2005.03 31.793 2005.03C23.3207 2005.03 16.4523 1998.16 16.4521 1989.69C16.4521 1981.21 23.3206 1974.34 31.793 1974.34Z" fill="white" stroke="white" stroke-width="6.41011" stroke-miterlimit="10"/>
<path d="M312.627 1974.34C321.1 1974.34 327.968 1981.21 327.968 1989.69C327.968 1998.16 321.1 2005.03 312.627 2005.03C304.155 2005.03 297.287 1998.16 297.287 1989.69C297.287 1981.21 304.155 1974.34 312.627 1974.34Z" fill="white" stroke="white" stroke-width="6.41011" stroke-miterlimit="10"/>
<path d="M590.812 1974.34C599.285 1974.34 606.153 1981.21 606.153 1989.69C606.153 1998.16 599.285 2005.03 590.812 2005.03C582.34 2005.03 575.472 1998.16 575.472 1989.69C575.472 1981.21 582.34 1974.34 590.812 1974.34Z" fill="white" stroke="white" stroke-width="6.41011" stroke-miterlimit="10"/>
<path d="M871.646 1974.34C880.119 1974.34 886.986 1981.21 886.986 1989.69C886.986 1998.16 880.119 2005.03 871.646 2005.03C863.174 2005.03 856.306 1998.16 856.306 1989.69C856.306 1981.21 863.174 1974.34 871.646 1974.34Z" fill="white" stroke="white" stroke-width="6.41011" stroke-miterlimit="10"/>
<path d="M1152.48 1974.34C1160.95 1974.34 1167.82 1981.21 1167.82 1989.69C1167.82 1998.16 1160.95 2005.03 1152.48 2005.03C1144.01 2005.03 1137.14 1998.16 1137.14 1989.69C1137.14 1981.21 1144.01 1974.34 1152.48 1974.34Z" fill="white" stroke="white" stroke-width="6.41011" stroke-miterlimit="10"/>
<path d="M1430.67 1974.34C1439.14 1974.34 1446.01 1981.21 1446.01 1989.69C1446.01 1998.16 1439.14 2005.03 1430.67 2005.03C1422.19 2005.03 1415.33 1998.16 1415.33 1989.69C1415.33 1981.21 1422.19 1974.34 1430.67 1974.34Z" fill="white" stroke="white" stroke-width="6.41011" stroke-miterlimit="10"/>
<path d="M1711.5 1974.34C1719.97 1974.34 1726.84 1981.21 1726.84 1989.69C1726.84 1998.16 1719.97 2005.03 1711.5 2005.03C1703.03 2005.03 1696.16 1998.16 1696.16 1989.69C1696.16 1981.21 1703.03 1974.34 1711.5 1974.34Z" fill="white" stroke="white" stroke-width="6.41011" stroke-miterlimit="10"/>
<path d="M1989.69 1974.34C1998.16 1974.34 2005.03 1981.21 2005.03 1989.69C2005.03 1998.16 1998.16 2005.03 1989.69 2005.03C1981.21 2005.03 1974.34 1998.16 1974.34 1989.69C1974.34 1981.21 1981.21 1974.34 1989.69 1974.34Z" fill="white" stroke="white" stroke-width="6.41011" stroke-miterlimit="10"/>
<path d="M2270.52 1974.34C2278.99 1974.34 2285.86 1981.21 2285.86 1989.69C2285.86 1998.16 2278.99 2005.03 2270.52 2005.03C2262.05 2005.03 2255.18 1998.16 2255.18 1989.69C2255.18 1981.21 2262.05 1974.34 2270.52 1974.34Z" fill="white" stroke="white" stroke-width="6.41011" stroke-miterlimit="10"/>
<path d="M2551.35 1974.34C2559.83 1974.34 2566.69 1981.21 2566.69 1989.69C2566.69 1998.16 2559.83 2005.03 2551.35 2005.03C2542.88 2005.03 2536.01 1998.16 2536.01 1989.69C2536.01 1981.21 2542.88 1974.34 2551.35 1974.34Z" fill="white" stroke="white" stroke-width="6.41011" stroke-miterlimit="10"/>
<path d="M2829.54 1974.34C2838.01 1974.34 2844.88 1981.21 2844.88 1989.69C2844.88 1998.16 2838.01 2005.03 2829.54 2005.03C2821.07 2005.03 2814.2 1998.16 2814.2 1989.69C2814.2 1981.21 2821.07 1974.34 2829.54 1974.34Z" fill="white" stroke="white" stroke-width="6.41011" stroke-miterlimit="10"/>
<path d="M3110.37 1974.34C3118.85 1974.34 3125.71 1981.21 3125.71 1989.69C3125.71 1998.16 3118.85 2005.03 3110.37 2005.03C3101.9 2005.03 3095.03 1998.16 3095.03 1989.69C3095.03 1981.21 3101.9 1974.34 3110.37 1974.34Z" fill="white" stroke="white" stroke-width="6.41011" stroke-miterlimit="10"/>
<path d="M3388.56 1974.34C3397.03 1974.34 3403.9 1981.21 3403.9 1989.69C3403.9 1998.16 3397.03 2005.03 3388.56 2005.03C3380.09 2005.03 3373.22 1998.16 3373.22 1989.69C3373.22 1981.21 3380.09 1974.34 3388.56 1974.34Z" fill="white" stroke="white" stroke-width="6.41011" stroke-miterlimit="10"/>
<path d="M31.793 1696.16C40.2653 1696.16 47.1338 1703.03 47.1338 1711.5C47.1336 1719.97 40.2651 1726.84 31.793 1726.84C23.3207 1726.84 16.4523 1719.97 16.4521 1711.5C16.4521 1703.03 23.3206 1696.16 31.793 1696.16Z" fill="white" stroke="white" stroke-width="6.41011" stroke-miterlimit="10"/>
<path d="M312.627 1696.16C321.1 1696.16 327.968 1703.03 327.968 1711.5C327.968 1719.97 321.1 1726.84 312.627 1726.84C304.155 1726.84 297.287 1719.97 297.287 1711.5C297.287 1703.03 304.155 1696.16 312.627 1696.16Z" fill="white" stroke="white" stroke-width="6.41011" stroke-miterlimit="10"/>
<path d="M590.812 1696.16C599.285 1696.16 606.153 1703.03 606.153 1711.5C606.153 1719.97 599.285 1726.84 590.812 1726.84C582.34 1726.84 575.472 1719.97 575.472 1711.5C575.472 1703.03 582.34 1696.16 590.812 1696.16Z" fill="white" stroke="white" stroke-width="6.41011" stroke-miterlimit="10"/>
<path d="M871.646 1696.16C880.119 1696.16 886.986 1703.03 886.986 1711.5C886.986 1719.97 880.119 1726.84 871.646 1726.84C863.174 1726.84 856.306 1719.97 856.306 1711.5C856.306 1703.03 863.174 1696.16 871.646 1696.16Z" fill="white" stroke="white" stroke-width="6.41011" stroke-miterlimit="10"/>
<path d="M1152.48 1696.16C1160.95 1696.16 1167.82 1703.03 1167.82 1711.5C1167.82 1719.97 1160.95 1726.84 1152.48 1726.84C1144.01 1726.84 1137.14 1719.97 1137.14 1711.5C1137.14 1703.03 1144.01 1696.16 1152.48 1696.16Z" fill="white" stroke="white" stroke-width="6.41011" stroke-miterlimit="10"/>
<path d="M1430.67 1696.16C1439.14 1696.16 1446.01 1703.03 1446.01 1711.5C1446.01 1719.97 1439.14 1726.84 1430.67 1726.84C1422.19 1726.84 1415.33 1719.97 1415.33 1711.5C1415.33 1703.03 1422.19 1696.16 1430.67 1696.16Z" fill="white" stroke="white" stroke-width="6.41011" stroke-miterlimit="10"/>
<path d="M1711.5 1696.16C1719.97 1696.16 1726.84 1703.03 1726.84 1711.5C1726.84 1719.97 1719.97 1726.84 1711.5 1726.84C1703.03 1726.84 1696.16 1719.97 1696.16 1711.5C1696.16 1703.03 1703.03 1696.16 1711.5 1696.16Z" fill="white" stroke="white" stroke-width="6.41011" stroke-miterlimit="10"/>
<path d="M1989.69 1696.16C1998.16 1696.16 2005.03 1703.03 2005.03 1711.5C2005.03 1719.97 1998.16 1726.84 1989.69 1726.84C1981.21 1726.84 1974.34 1719.97 1974.34 1711.5C1974.34 1703.03 1981.21 1696.16 1989.69 1696.16Z" fill="white" stroke="white" stroke-width="6.41011" stroke-miterlimit="10"/>
<path d="M2270.52 1696.16C2278.99 1696.16 2285.86 1703.03 2285.86 1711.5C2285.86 1719.97 2278.99 1726.84 2270.52 1726.84C2262.05 1726.84 2255.18 1719.97 2255.18 1711.5C2255.18 1703.03 2262.05 1696.16 2270.52 1696.16Z" fill="white" stroke="white" stroke-width="6.41011" stroke-miterlimit="10"/>
<path d="M2551.35 1696.16C2559.83 1696.16 2566.69 1703.03 2566.69 1711.5C2566.69 1719.97 2559.83 1726.84 2551.35 1726.84C2542.88 1726.84 2536.01 1719.97 2536.01 1711.5C2536.01 1703.03 2542.88 1696.16 2551.35 1696.16Z" fill="white" stroke="white" stroke-width="6.41011" stroke-miterlimit="10"/>
<path d="M2829.54 1696.16C2838.01 1696.16 2844.88 1703.03 2844.88 1711.5C2844.88 1719.97 2838.01 1726.84 2829.54 1726.84C2821.07 1726.84 2814.2 1719.97 2814.2 1711.5C2814.2 1703.03 2821.07 1696.16 2829.54 1696.16Z" fill="white" stroke="white" stroke-width="6.41011" stroke-miterlimit="10"/>
<path d="M3110.37 1696.16C3118.85 1696.16 3125.71 1703.03 3125.71 1711.5C3125.71 1719.97 3118.85 1726.84 3110.37 1726.84C3101.9 1726.84 3095.03 1719.97 3095.03 1711.5C3095.03 1703.03 3101.9 1696.16 3110.37 1696.16Z" fill="white" stroke="white" stroke-width="6.41011" stroke-miterlimit="10"/>
<path d="M3388.56 1696.16C3397.03 1696.16 3403.9 1703.03 3403.9 1711.5C3403.9 1719.97 3397.03 1726.84 3388.56 1726.84C3380.09 1726.84 3373.22 1719.97 3373.22 1711.5C3373.22 1703.03 3380.09 1696.16 3388.56 1696.16Z" fill="white" stroke="white" stroke-width="6.41011" stroke-miterlimit="10"/>
<path d="M31.793 1415.32C40.2652 1415.32 47.1338 1422.19 47.1338 1430.67C47.1337 1439.14 40.2652 1446.01 31.793 1446.01C23.3207 1446.01 16.4523 1439.14 16.4521 1430.67C16.4521 1422.19 23.3206 1415.32 31.793 1415.32Z" fill="white" stroke="white" stroke-width="6.41011" stroke-miterlimit="10"/>
<path d="M312.627 1415.32C321.1 1415.32 327.968 1422.19 327.968 1430.67C327.968 1439.14 321.1 1446.01 312.627 1446.01C304.155 1446.01 297.287 1439.14 297.287 1430.67C297.287 1422.19 304.155 1415.32 312.627 1415.32Z" fill="white" stroke="white" stroke-width="6.41011" stroke-miterlimit="10"/>
<path d="M590.812 1415.32C599.285 1415.32 606.153 1422.19 606.153 1430.67C606.153 1439.14 599.285 1446.01 590.812 1446.01C582.34 1446.01 575.472 1439.14 575.472 1430.67C575.472 1422.19 582.34 1415.32 590.812 1415.32Z" fill="white" stroke="white" stroke-width="6.41011" stroke-miterlimit="10"/>
<path d="M871.646 1415.32C880.119 1415.32 886.986 1422.19 886.986 1430.67C886.986 1439.14 880.119 1446.01 871.646 1446.01C863.174 1446.01 856.306 1439.14 856.306 1430.67C856.306 1422.19 863.174 1415.32 871.646 1415.32Z" fill="white" stroke="white" stroke-width="6.41011" stroke-miterlimit="10"/>
<path d="M1152.48 1415.32C1160.95 1415.32 1167.82 1422.19 1167.82 1430.67C1167.82 1439.14 1160.95 1446.01 1152.48 1446.01C1144.01 1446.01 1137.14 1439.14 1137.14 1430.67C1137.14 1422.19 1144.01 1415.32 1152.48 1415.32Z" fill="white" stroke="white" stroke-width="6.41011" stroke-miterlimit="10"/>
<path d="M1430.67 1415.32C1439.14 1415.32 1446.01 1422.19 1446.01 1430.67C1446.01 1439.14 1439.14 1446.01 1430.67 1446.01C1422.19 1446.01 1415.33 1439.14 1415.33 1430.67C1415.33 1422.19 1422.19 1415.32 1430.67 1415.32Z" fill="white" stroke="white" stroke-width="6.41011" stroke-miterlimit="10"/>
<path d="M1711.5 1415.32C1719.97 1415.32 1726.84 1422.19 1726.84 1430.67C1726.84 1439.14 1719.97 1446.01 1711.5 1446.01C1703.03 1446.01 1696.16 1439.14 1696.16 1430.67C1696.16 1422.19 1703.03 1415.32 1711.5 1415.32Z" fill="white" stroke="white" stroke-width="6.41011" stroke-miterlimit="10"/>
<path d="M1989.69 1415.32C1998.16 1415.32 2005.03 1422.19 2005.03 1430.67C2005.03 1439.14 1998.16 1446.01 1989.69 1446.01C1981.21 1446.01 1974.34 1439.14 1974.34 1430.67C1974.34 1422.19 1981.21 1415.32 1989.69 1415.32Z" fill="white" stroke="white" stroke-width="6.41011" stroke-miterlimit="10"/>
<path d="M2270.52 1415.32C2278.99 1415.32 2285.86 1422.19 2285.86 1430.67C2285.86 1439.14 2278.99 1446.01 2270.52 1446.01C2262.05 1446.01 2255.18 1439.14 2255.18 1430.67C2255.18 1422.19 2262.05 1415.32 2270.52 1415.32Z" fill="white" stroke="white" stroke-width="6.41011" stroke-miterlimit="10"/>
<path d="M2551.35 1415.32C2559.83 1415.32 2566.69 1422.19 2566.69 1430.67C2566.69 1439.14 2559.83 1446.01 2551.35 1446.01C2542.88 1446.01 2536.01 1439.14 2536.01 1430.67C2536.01 1422.19 2542.88 1415.32 2551.35 1415.32Z" fill="white" stroke="white" stroke-width="6.41011" stroke-miterlimit="10"/>
<path d="M2829.54 1415.32C2838.01 1415.32 2844.88 1422.19 2844.88 1430.67C2844.88 1439.14 2838.01 1446.01 2829.54 1446.01C2821.07 1446.01 2814.2 1439.14 2814.2 1430.67C2814.2 1422.19 2821.07 1415.32 2829.54 1415.32Z" fill="white" stroke="white" stroke-width="6.41011" stroke-miterlimit="10"/>
<path d="M3110.37 1415.32C3118.85 1415.32 3125.71 1422.19 3125.71 1430.67C3125.71 1439.14 3118.85 1446.01 3110.37 1446.01C3101.9 1446.01 3095.03 1439.14 3095.03 1430.67C3095.03 1422.19 3101.9 1415.32 3110.37 1415.32Z" fill="white" stroke="white" stroke-width="6.41011" stroke-miterlimit="10"/>
<path d="M3388.56 1415.32C3397.03 1415.32 3403.9 1422.19 3403.9 1430.67C3403.9 1439.14 3397.03 1446.01 3388.56 1446.01C3380.09 1446.01 3373.22 1439.14 3373.22 1430.67C3373.22 1422.19 3380.09 1415.32 3388.56 1415.32Z" fill="white" stroke="white" stroke-width="6.41011" stroke-miterlimit="10"/>
<path d="M31.793 1137.14C40.2652 1137.14 47.1338 1144.01 47.1338 1152.48C47.1337 1160.95 40.2652 1167.82 31.793 1167.82C23.3207 1167.82 16.4523 1160.95 16.4521 1152.48C16.4521 1144.01 23.3206 1137.14 31.793 1137.14Z" fill="white" stroke="white" stroke-width="6.41011" stroke-miterlimit="10"/>
<path d="M312.627 1137.14C321.1 1137.14 327.968 1144.01 327.968 1152.48C327.968 1160.95 321.1 1167.82 312.627 1167.82C304.155 1167.82 297.287 1160.95 297.287 1152.48C297.287 1144.01 304.155 1137.14 312.627 1137.14Z" fill="white" stroke="white" stroke-width="6.41011" stroke-miterlimit="10"/>
<path d="M590.812 1137.14C599.285 1137.14 606.153 1144.01 606.153 1152.48C606.153 1160.95 599.285 1167.82 590.812 1167.82C582.34 1167.82 575.472 1160.95 575.472 1152.48C575.472 1144.01 582.34 1137.14 590.812 1137.14Z" fill="white" stroke="white" stroke-width="6.41011" stroke-miterlimit="10"/>
<path d="M871.646 1137.14C880.119 1137.14 886.986 1144.01 886.986 1152.48C886.986 1160.95 880.119 1167.82 871.646 1167.82C863.174 1167.82 856.306 1160.95 856.306 1152.48C856.306 1144.01 863.174 1137.14 871.646 1137.14Z" fill="white" stroke="white" stroke-width="6.41011" stroke-miterlimit="10"/>
<path d="M1152.48 1137.14C1160.95 1137.14 1167.82 1144.01 1167.82 1152.48C1167.82 1160.95 1160.95 1167.82 1152.48 1167.82C1144.01 1167.82 1137.14 1160.95 1137.14 1152.48C1137.14 1144.01 1144.01 1137.14 1152.48 1137.14Z" fill="white" stroke="white" stroke-width="6.41011" stroke-miterlimit="10"/>
<path d="M1430.67 1137.14C1439.14 1137.14 1446.01 1144.01 1446.01 1152.48C1446.01 1160.95 1439.14 1167.82 1430.67 1167.82C1422.19 1167.82 1415.33 1160.95 1415.33 1152.48C1415.33 1144.01 1422.19 1137.14 1430.67 1137.14Z" fill="white" stroke="white" stroke-width="6.41011" stroke-miterlimit="10"/>
<path d="M1711.5 1137.14C1719.97 1137.14 1726.84 1144.01 1726.84 1152.48C1726.84 1160.95 1719.97 1167.82 1711.5 1167.82C1703.03 1167.82 1696.16 1160.95 1696.16 1152.48C1696.16 1144.01 1703.03 1137.14 1711.5 1137.14Z" fill="white" stroke="white" stroke-width="6.41011" stroke-miterlimit="10"/>
<path d="M1989.69 1137.14C1998.16 1137.14 2005.03 1144.01 2005.03 1152.48C2005.03 1160.95 1998.16 1167.82 1989.69 1167.82C1981.21 1167.82 1974.34 1160.95 1974.34 1152.48C1974.34 1144.01 1981.21 1137.14 1989.69 1137.14Z" fill="white" stroke="white" stroke-width="6.41011" stroke-miterlimit="10"/>
<path d="M2270.52 1137.14C2278.99 1137.14 2285.86 1144.01 2285.86 1152.48C2285.86 1160.95 2278.99 1167.82 2270.52 1167.82C2262.05 1167.82 2255.18 1160.95 2255.18 1152.48C2255.18 1144.01 2262.05 1137.14 2270.52 1137.14Z" fill="white" stroke="white" stroke-width="6.41011" stroke-miterlimit="10"/>
<path d="M2551.35 1137.14C2559.83 1137.14 2566.69 1144.01 2566.69 1152.48C2566.69 1160.95 2559.83 1167.82 2551.35 1167.82C2542.88 1167.82 2536.01 1160.95 2536.01 1152.48C2536.01 1144.01 2542.88 1137.14 2551.35 1137.14Z" fill="white" stroke="white" stroke-width="6.41011" stroke-miterlimit="10"/>
<path d="M2829.54 1137.14C2838.01 1137.14 2844.88 1144.01 2844.88 1152.48C2844.88 1160.95 2838.01 1167.82 2829.54 1167.82C2821.07 1167.82 2814.2 1160.95 2814.2 1152.48C2814.2 1144.01 2821.07 1137.14 2829.54 1137.14Z" fill="white" stroke="white" stroke-width="6.41011" stroke-miterlimit="10"/>
<path d="M3110.37 1137.14C3118.85 1137.14 3125.71 1144.01 3125.71 1152.48C3125.71 1160.95 3118.85 1167.82 3110.37 1167.82C3101.9 1167.82 3095.03 1160.95 3095.03 1152.48C3095.03 1144.01 3101.9 1137.14 3110.37 1137.14Z" fill="white" stroke="white" stroke-width="6.41011" stroke-miterlimit="10"/>
<path d="M3388.56 1137.14C3397.03 1137.14 3403.9 1144.01 3403.9 1152.48C3403.9 1160.95 3397.03 1167.82 3388.56 1167.82C3380.09 1167.82 3373.22 1160.95 3373.22 1152.48C3373.22 1144.01 3380.09 1137.14 3388.56 1137.14Z" fill="white" stroke="white" stroke-width="6.41011" stroke-miterlimit="10"/>
<path d="M31.793 856.306C40.2652 856.306 47.1338 863.174 47.1338 871.646C47.1337 880.119 40.2652 886.986 31.793 886.986C23.3206 886.986 16.4523 880.119 16.4521 871.646C16.4521 863.174 23.3206 856.306 31.793 856.306Z" fill="white" stroke="white" stroke-width="6.41011" stroke-miterlimit="10"/>
<path d="M312.627 856.306C321.1 856.306 327.968 863.174 327.968 871.646C327.968 880.119 321.1 886.986 312.627 886.986C304.155 886.986 297.287 880.119 297.287 871.646C297.287 863.174 304.155 856.306 312.627 856.306Z" fill="white" stroke="white" stroke-width="6.41011" stroke-miterlimit="10"/>
<path d="M590.812 856.306C599.285 856.306 606.153 863.174 606.153 871.646C606.153 880.119 599.285 886.986 590.812 886.986C582.34 886.986 575.472 880.119 575.472 871.646C575.472 863.174 582.34 856.306 590.812 856.306Z" fill="white" stroke="white" stroke-width="6.41011" stroke-miterlimit="10"/>
<path d="M871.646 856.306C880.119 856.306 886.986 863.174 886.986 871.646C886.986 880.119 880.119 886.986 871.646 886.986C863.174 886.986 856.306 880.119 856.306 871.646C856.306 863.174 863.174 856.306 871.646 856.306Z" fill="white" stroke="white" stroke-width="6.41011" stroke-miterlimit="10"/>
<path d="M1152.48 856.306C1160.95 856.306 1167.82 863.174 1167.82 871.646C1167.82 880.119 1160.95 886.986 1152.48 886.986C1144.01 886.986 1137.14 880.119 1137.14 871.646C1137.14 863.174 1144.01 856.306 1152.48 856.306Z" fill="white" stroke="white" stroke-width="6.41011" stroke-miterlimit="10"/>
<path d="M1430.67 856.306C1439.14 856.306 1446.01 863.174 1446.01 871.646C1446.01 880.119 1439.14 886.986 1430.67 886.986C1422.19 886.986 1415.33 880.119 1415.33 871.646C1415.33 863.174 1422.19 856.306 1430.67 856.306Z" fill="white" stroke="white" stroke-width="6.41011" stroke-miterlimit="10"/>
<path d="M1711.5 856.306C1719.97 856.306 1726.84 863.174 1726.84 871.646C1726.84 880.119 1719.97 886.986 1711.5 886.986C1703.03 886.986 1696.16 880.119 1696.16 871.646C1696.16 863.174 1703.03 856.306 1711.5 856.306Z" fill="white" stroke="white" stroke-width="6.41011" stroke-miterlimit="10"/>
<path d="M1989.69 856.306C1998.16 856.306 2005.03 863.174 2005.03 871.646C2005.03 880.119 1998.16 886.986 1989.69 886.986C1981.21 886.986 1974.34 880.119 1974.34 871.646C1974.34 863.174 1981.21 856.306 1989.69 856.306Z" fill="white" stroke="white" stroke-width="6.41011" stroke-miterlimit="10"/>
<path d="M2270.52 856.306C2278.99 856.306 2285.86 863.174 2285.86 871.646C2285.86 880.119 2278.99 886.986 2270.52 886.986C2262.05 886.986 2255.18 880.119 2255.18 871.646C2255.18 863.174 2262.05 856.306 2270.52 856.306Z" fill="white" stroke="white" stroke-width="6.41011" stroke-miterlimit="10"/>
<path d="M2551.35 856.306C2559.83 856.306 2566.69 863.174 2566.69 871.646C2566.69 880.119 2559.83 886.986 2551.35 886.986C2542.88 886.986 2536.01 880.119 2536.01 871.646C2536.01 863.174 2542.88 856.306 2551.35 856.306Z" fill="white" stroke="white" stroke-width="6.41011" stroke-miterlimit="10"/>
<path d="M2829.54 856.306C2838.01 856.306 2844.88 863.174 2844.88 871.646C2844.88 880.119 2838.01 886.986 2829.54 886.986C2821.07 886.986 2814.2 880.119 2814.2 871.646C2814.2 863.174 2821.07 856.306 2829.54 856.306Z" fill="white" stroke="white" stroke-width="6.41011" stroke-miterlimit="10"/>
<path d="M3110.37 856.306C3118.85 856.306 3125.71 863.174 3125.71 871.646C3125.71 880.119 3118.85 886.986 3110.37 886.986C3101.9 886.986 3095.03 880.119 3095.03 871.646C3095.03 863.174 3101.9 856.306 3110.37 856.306Z" fill="white" stroke="white" stroke-width="6.41011" stroke-miterlimit="10"/>
<path d="M3388.56 856.306C3397.03 856.306 3403.9 863.174 3403.9 871.646C3403.9 880.119 3397.03 886.986 3388.56 886.986C3380.09 886.986 3373.22 880.119 3373.22 871.646C3373.22 863.174 3380.09 856.306 3388.56 856.306Z" fill="white" stroke="white" stroke-width="6.41011" stroke-miterlimit="10"/>
<path d="M31.793 575.47C40.2653 575.47 47.1338 582.339 47.1338 590.811C47.1336 599.283 40.2652 606.152 31.793 606.152C23.3207 606.152 16.4523 599.283 16.4521 590.811C16.4521 582.339 23.3206 575.47 31.793 575.47Z" fill="white" stroke="white" stroke-width="6.41011" stroke-miterlimit="10"/>
<path d="M312.627 575.47C321.1 575.47 327.968 582.339 327.968 590.811C327.968 599.283 321.1 606.152 312.627 606.152C304.155 606.152 297.287 599.283 297.287 590.811C297.287 582.339 304.155 575.47 312.627 575.47Z" fill="white" stroke="white" stroke-width="6.41011" stroke-miterlimit="10"/>
<path d="M590.812 575.47C599.285 575.47 606.153 582.339 606.153 590.811C606.153 599.283 599.285 606.152 590.812 606.152C582.34 606.152 575.472 599.283 575.472 590.811C575.472 582.339 582.34 575.47 590.812 575.47Z" fill="white" stroke="white" stroke-width="6.41011" stroke-miterlimit="10"/>
<path d="M871.646 575.47C880.119 575.47 886.986 582.339 886.986 590.811C886.986 599.283 880.119 606.152 871.646 606.152C863.174 606.152 856.306 599.283 856.306 590.811C856.306 582.339 863.174 575.47 871.646 575.47Z" fill="white" stroke="white" stroke-width="6.41011" stroke-miterlimit="10"/>
<path d="M1152.48 575.47C1160.95 575.47 1167.82 582.339 1167.82 590.811C1167.82 599.283 1160.95 606.152 1152.48 606.152C1144.01 606.152 1137.14 599.283 1137.14 590.811C1137.14 582.339 1144.01 575.47 1152.48 575.47Z" fill="white" stroke="white" stroke-width="6.41011" stroke-miterlimit="10"/>
<path d="M1430.67 575.47C1439.14 575.47 1446.01 582.339 1446.01 590.811C1446.01 599.283 1439.14 606.152 1430.67 606.152C1422.19 606.152 1415.33 599.283 1415.33 590.811C1415.33 582.339 1422.19 575.47 1430.67 575.47Z" fill="white" stroke="white" stroke-width="6.41011" stroke-miterlimit="10"/>
<path d="M1711.5 575.47C1719.97 575.471 1726.84 582.339 1726.84 590.811C1726.84 599.283 1719.97 606.152 1711.5 606.152C1703.03 606.152 1696.16 599.283 1696.16 590.811C1696.16 582.339 1703.03 575.47 1711.5 575.47Z" fill="white" stroke="white" stroke-width="6.41011" stroke-miterlimit="10"/>
<path d="M1989.69 575.47C1998.16 575.471 2005.03 582.339 2005.03 590.811C2005.03 599.283 1998.16 606.152 1989.69 606.152C1981.21 606.152 1974.34 599.283 1974.34 590.811C1974.34 582.339 1981.21 575.47 1989.69 575.47Z" fill="white" stroke="white" stroke-width="6.41011" stroke-miterlimit="10"/>
<path d="M2270.52 575.47C2278.99 575.471 2285.86 582.339 2285.86 590.811C2285.86 599.283 2278.99 606.152 2270.52 606.152C2262.05 606.152 2255.18 599.283 2255.18 590.811C2255.18 582.339 2262.05 575.47 2270.52 575.47Z" fill="white" stroke="white" stroke-width="6.41011" stroke-miterlimit="10"/>
<path d="M2551.35 575.47C2559.83 575.47 2566.69 582.339 2566.69 590.811C2566.69 599.283 2559.83 606.152 2551.35 606.152C2542.88 606.152 2536.01 599.283 2536.01 590.811C2536.01 582.339 2542.88 575.47 2551.35 575.47Z" fill="white" stroke="white" stroke-width="6.41011" stroke-miterlimit="10"/>
<path d="M2829.54 575.47C2838.01 575.47 2844.88 582.339 2844.88 590.811C2844.88 599.283 2838.01 606.152 2829.54 606.152C2821.07 606.152 2814.2 599.283 2814.2 590.811C2814.2 582.339 2821.07 575.47 2829.54 575.47Z" fill="white" stroke="white" stroke-width="6.41011" stroke-miterlimit="10"/>
<path d="M3110.37 575.47C3118.85 575.47 3125.71 582.339 3125.71 590.811C3125.71 599.283 3118.85 606.152 3110.37 606.152C3101.9 606.152 3095.03 599.283 3095.03 590.811C3095.03 582.339 3101.9 575.47 3110.37 575.47Z" fill="white" stroke="white" stroke-width="6.41011" stroke-miterlimit="10"/>
<path d="M3388.56 575.47C3397.03 575.47 3403.9 582.339 3403.9 590.811C3403.9 599.283 3397.03 606.152 3388.56 606.152C3380.09 606.152 3373.22 599.283 3373.22 590.811C3373.22 582.339 3380.09 575.47 3388.56 575.47Z" fill="white" stroke="white" stroke-width="6.41011" stroke-miterlimit="10"/>
<path d="M31.793 297.285C40.2652 297.286 47.1338 304.154 47.1338 312.626C47.1337 321.098 40.2652 327.967 31.793 327.967C23.3207 327.967 16.4523 321.098 16.4521 312.626C16.4521 304.154 23.3206 297.285 31.793 297.285Z" fill="white" stroke="white" stroke-width="6.41011" stroke-miterlimit="10"/>
<path d="M312.627 297.285C321.1 297.286 327.968 304.154 327.968 312.626C327.968 321.098 321.1 327.967 312.627 327.967C304.155 327.967 297.287 321.098 297.287 312.626C297.287 304.154 304.155 297.285 312.627 297.285Z" fill="white" stroke="white" stroke-width="6.41011" stroke-miterlimit="10"/>
<path d="M590.812 297.285C599.285 297.286 606.153 304.154 606.153 312.626C606.153 321.098 599.285 327.967 590.812 327.967C582.34 327.967 575.472 321.099 575.472 312.626C575.472 304.154 582.34 297.285 590.812 297.285Z" fill="white" stroke="white" stroke-width="6.41011" stroke-miterlimit="10"/>
<path d="M871.646 297.285C880.119 297.286 886.986 304.154 886.986 312.626C886.986 321.098 880.119 327.967 871.646 327.967C863.174 327.967 856.306 321.098 856.306 312.626C856.306 304.154 863.174 297.285 871.646 297.285Z" fill="white" stroke="white" stroke-width="6.41011" stroke-miterlimit="10"/>
<path d="M1152.48 297.285C1160.95 297.286 1167.82 304.154 1167.82 312.626C1167.82 321.098 1160.95 327.967 1152.48 327.967C1144.01 327.967 1137.14 321.098 1137.14 312.626C1137.14 304.154 1144.01 297.285 1152.48 297.285Z" fill="white" stroke="white" stroke-width="6.41011" stroke-miterlimit="10"/>
<path d="M1430.67 297.285C1439.14 297.286 1446.01 304.154 1446.01 312.626C1446.01 321.098 1439.14 327.967 1430.67 327.967C1422.19 327.967 1415.33 321.098 1415.33 312.626C1415.33 304.154 1422.19 297.285 1430.67 297.285Z" fill="white" stroke="white" stroke-width="6.41011" stroke-miterlimit="10"/>
<path d="M1711.5 297.285C1719.97 297.286 1726.84 304.154 1726.84 312.626C1726.84 321.098 1719.97 327.967 1711.5 327.967C1703.03 327.967 1696.16 321.099 1696.16 312.626C1696.16 304.154 1703.03 297.285 1711.5 297.285Z" fill="white" stroke="white" stroke-width="6.41011" stroke-miterlimit="10"/>
<path d="M1989.69 297.285C1998.16 297.286 2005.03 304.154 2005.03 312.626C2005.03 321.098 1998.16 327.967 1989.69 327.967C1981.21 327.967 1974.34 321.099 1974.34 312.626C1974.34 304.154 1981.21 297.285 1989.69 297.285Z" fill="white" stroke="white" stroke-width="6.41011" stroke-miterlimit="10"/>
<path d="M2270.52 297.285C2278.99 297.286 2285.86 304.154 2285.86 312.626C2285.86 321.098 2278.99 327.967 2270.52 327.967C2262.05 327.967 2255.18 321.099 2255.18 312.626C2255.18 304.154 2262.05 297.285 2270.52 297.285Z" fill="white" stroke="white" stroke-width="6.41011" stroke-miterlimit="10"/>
<path d="M2551.35 297.285C2559.83 297.285 2566.69 304.154 2566.69 312.626C2566.69 321.098 2559.83 327.967 2551.35 327.967C2542.88 327.967 2536.01 321.098 2536.01 312.626C2536.01 304.154 2542.88 297.285 2551.35 297.285Z" fill="white" stroke="white" stroke-width="6.41011" stroke-miterlimit="10"/>
<path d="M2829.54 297.285C2838.01 297.285 2844.88 304.154 2844.88 312.626C2844.88 321.098 2838.01 327.967 2829.54 327.967C2821.07 327.967 2814.2 321.098 2814.2 312.626C2814.2 304.154 2821.07 297.285 2829.54 297.285Z" fill="white" stroke="white" stroke-width="6.41011" stroke-miterlimit="10"/>
<path d="M3110.37 297.285C3118.85 297.285 3125.71 304.154 3125.71 312.626C3125.71 321.098 3118.85 327.967 3110.37 327.967C3101.9 327.967 3095.03 321.098 3095.03 312.626C3095.03 304.154 3101.9 297.285 3110.37 297.285Z" fill="white" stroke="white" stroke-width="6.41011" stroke-miterlimit="10"/>
<path d="M3388.56 297.285C3397.03 297.285 3403.9 304.154 3403.9 312.626C3403.9 321.098 3397.03 327.967 3388.56 327.967C3380.09 327.967 3373.22 321.098 3373.22 312.626C3373.22 304.154 3380.09 297.285 3388.56 297.285Z" fill="white" stroke="white" stroke-width="6.41011" stroke-miterlimit="10"/>
<path d="M31.793 16.4518C40.2652 16.4519 47.1338 23.3203 47.1338 31.7926C47.1337 40.2648 40.2652 47.1333 31.793 47.1334C23.3207 47.1334 16.4523 40.2649 16.4521 31.7926C16.4521 23.3202 23.3206 16.4518 31.793 16.4518Z" fill="white" stroke="white" stroke-width="6.41011" stroke-miterlimit="10"/>
<path d="M312.627 16.4518C321.1 16.4519 327.968 23.3203 327.968 31.7926C327.968 40.2648 321.1 47.1333 312.627 47.1334C304.155 47.1334 297.287 40.2649 297.287 31.7926C297.287 23.3202 304.155 16.4518 312.627 16.4518Z" fill="white" stroke="white" stroke-width="6.41011" stroke-miterlimit="10"/>
<path d="M590.812 16.4518C599.285 16.4519 606.153 23.3203 606.153 31.7926C606.153 40.2648 599.285 47.1333 590.812 47.1334C582.34 47.1334 575.472 40.2649 575.472 31.7926C575.472 23.3202 582.34 16.4518 590.812 16.4518Z" fill="white" stroke="white" stroke-width="6.41011" stroke-miterlimit="10"/>
<path d="M871.646 16.4518C880.119 16.4519 886.986 23.3203 886.986 31.7926C886.986 40.2648 880.119 47.1333 871.646 47.1334C863.174 47.1334 856.306 40.2649 856.306 31.7926C856.306 23.3202 863.174 16.4518 871.646 16.4518Z" fill="white" stroke="white" stroke-width="6.41011" stroke-miterlimit="10"/>
<path d="M1152.48 16.4518C1160.95 16.4519 1167.82 23.3203 1167.82 31.7926C1167.82 40.2648 1160.95 47.1333 1152.48 47.1334C1144.01 47.1334 1137.14 40.2649 1137.14 31.7926C1137.14 23.3202 1144.01 16.4518 1152.48 16.4518Z" fill="white" stroke="white" stroke-width="6.41011" stroke-miterlimit="10"/>
<path d="M1430.67 16.4518C1439.14 16.4519 1446.01 23.3203 1446.01 31.7926C1446.01 40.2648 1439.14 47.1333 1430.67 47.1334C1422.19 47.1334 1415.33 40.2649 1415.33 31.7926C1415.33 23.3202 1422.19 16.4518 1430.67 16.4518Z" fill="white" stroke="white" stroke-width="6.41011" stroke-miterlimit="10"/>
<path d="M1711.5 16.4518C1719.97 16.452 1726.84 23.3203 1726.84 31.7926C1726.84 40.2647 1719.97 47.1333 1711.5 47.1334C1703.03 47.1334 1696.16 40.2649 1696.16 31.7926C1696.16 23.3202 1703.03 16.4518 1711.5 16.4518Z" fill="white" stroke="white" stroke-width="6.41011" stroke-miterlimit="10"/>
<path d="M1989.69 16.4518C1998.16 16.452 2005.03 23.3203 2005.03 31.7926C2005.03 40.2647 1998.16 47.1333 1989.69 47.1334C1981.21 47.1334 1974.34 40.2649 1974.34 31.7926C1974.34 23.3202 1981.21 16.4518 1989.69 16.4518Z" fill="white" stroke="white" stroke-width="6.41011" stroke-miterlimit="10"/>
<path d="M2270.52 16.4518C2278.99 16.452 2285.86 23.3203 2285.86 31.7926C2285.86 40.2647 2278.99 47.1333 2270.52 47.1334C2262.05 47.1334 2255.18 40.2649 2255.18 31.7926C2255.18 23.3202 2262.05 16.4518 2270.52 16.4518Z" fill="white" stroke="white" stroke-width="6.41011" stroke-miterlimit="10"/>
<path d="M2551.35 16.4518C2559.83 16.4518 2566.69 23.3202 2566.69 31.7926C2566.69 40.2649 2559.83 47.1334 2551.35 47.1334C2542.88 47.1334 2536.01 40.2649 2536.01 31.7926C2536.01 23.3202 2542.88 16.4518 2551.35 16.4518Z" fill="white" stroke="white" stroke-width="6.41011" stroke-miterlimit="10"/>
<path d="M2829.54 16.4518C2838.01 16.4518 2844.88 23.3202 2844.88 31.7926C2844.88 40.2649 2838.01 47.1334 2829.54 47.1334C2821.07 47.1334 2814.2 40.2649 2814.2 31.7926C2814.2 23.3202 2821.07 16.4518 2829.54 16.4518Z" fill="white" stroke="white" stroke-width="6.41011" stroke-miterlimit="10"/>
<path d="M3110.37 16.4518C3118.85 16.4518 3125.71 23.3202 3125.71 31.7926C3125.71 40.2649 3118.85 47.1334 3110.37 47.1334C3101.9 47.1334 3095.03 40.2649 3095.03 31.7926C3095.03 23.3202 3101.9 16.4518 3110.37 16.4518Z" fill="white" stroke="white" stroke-width="6.41011" stroke-miterlimit="10"/>
<path d="M3388.56 16.4518C3397.03 16.4518 3403.9 23.3203 3403.9 31.7926C3403.9 40.2648 3397.03 47.1334 3388.56 47.1334C3380.09 47.1334 3373.22 40.2649 3373.22 31.7926C3373.22 23.3202 3380.09 16.4518 3388.56 16.4518Z" fill="white" stroke="white" stroke-width="6.41011" stroke-miterlimit="10"/>
</svg>
