<svg width="423" height="352" viewBox="0 0 423 352" fill="none" xmlns="http://www.w3.org/2000/svg">
<path d="M411.789 151.459H332.954C322.067 151.459 319.113 159.037 325.229 167.734L363.607 222.485C368.543 229.709 376.051 229.855 381.211 222.485L419.511 167.88C425.774 159.037 422.676 151.459 411.789 151.459ZM211.322 25.0953C294.692 25.0953 362.099 92.5022 362.099 175.873C362.099 182.623 367.898 188.421 374.792 188.421C381.543 188.421 387.195 182.769 387.341 176.019C387.195 78.5644 308.484 0 211.322 0C159.587 0 112.281 22.464 80.0352 58.8057C73.9527 65.625 76.0727 74.0571 81.5018 78.2421C86.4237 81.7736 92.9583 81.9822 98.8948 75.3087C126.817 44.2501 166.998 25.0953 211.322 25.0953ZM11.0011 200.287H89.6138C100.5 200.287 103.601 192.709 97.4833 184.012L59.1818 129.261C54.1694 122.038 46.7376 121.892 41.5794 129.261L3.20113 183.866C-2.98614 192.709 -0.107934 200.287 11.0011 200.287ZM211.322 326.652C127.951 326.652 60.6132 259.244 60.6132 175.873C60.6132 169.123 54.892 163.326 47.9961 163.326C41.1697 163.326 35.5945 168.977 35.4485 175.727C35.5945 273.182 114.228 351.747 211.322 351.747C263.125 351.747 310.285 329.283 342.678 292.941C348.69 286.122 346.717 277.689 341.065 273.504C336.365 269.973 329.756 269.764 323.819 276.438C295.971 307.496 255.569 326.652 211.322 326.652Z" fill="white"/>
</svg>
