<svg width="3509" height="3509" viewBox="0 0 3509 3509" fill="none" xmlns="http://www.w3.org/2000/svg">
<path d="M146.769 0V3508.62" stroke="black" stroke-width="10" stroke-miterlimit="10"/>
<path d="M290.769 0V3508.62" stroke="black" stroke-width="10" stroke-miterlimit="10"/>
<path d="M437.538 0V3508.62" stroke="black" stroke-width="10" stroke-miterlimit="10"/>
<path d="M584.308 0V3508.62" stroke="black" stroke-width="10" stroke-miterlimit="10"/>
<path d="M731.077 0V3508.62" stroke="black" stroke-width="10" stroke-miterlimit="10"/>
<path d="M875.077 0V3508.62" stroke="black" stroke-width="10" stroke-miterlimit="10"/>
<path d="M1021.85 0V3508.62" stroke="black" stroke-width="10" stroke-miterlimit="10"/>
<path d="M1168.62 0V3508.62" stroke="black" stroke-width="10" stroke-miterlimit="10"/>
<path d="M1315.38 0V3508.62" stroke="black" stroke-width="10" stroke-miterlimit="10"/>
<path d="M1462.15 0V3508.62" stroke="black" stroke-width="10" stroke-miterlimit="10"/>
<path d="M1606.15 0V3508.62" stroke="black" stroke-width="10" stroke-miterlimit="10"/>
<path d="M1752.92 0V3508.62" stroke="black" stroke-width="10" stroke-miterlimit="10"/>
<path d="M1899.69 0V3508.62" stroke="black" stroke-width="10" stroke-miterlimit="10"/>
<path d="M2046.46 0V3508.62" stroke="black" stroke-width="10" stroke-miterlimit="10"/>
<path d="M2193.23 0V3508.62" stroke="black" stroke-width="10" stroke-miterlimit="10"/>
<path d="M2337.23 0V3508.62" stroke="black" stroke-width="10" stroke-miterlimit="10"/>
<path d="M2484 0V3508.62" stroke="black" stroke-width="10" stroke-miterlimit="10"/>
<path d="M2630.77 0V3508.62" stroke="black" stroke-width="10" stroke-miterlimit="10"/>
<path d="M2777.54 0V3508.62" stroke="black" stroke-width="10" stroke-miterlimit="10"/>
<path d="M2924.31 0V3508.62" stroke="black" stroke-width="10" stroke-miterlimit="10"/>
<path d="M3068.31 0V3508.62" stroke="black" stroke-width="10" stroke-miterlimit="10"/>
<path d="M3215.08 0V3508.62" stroke="black" stroke-width="10" stroke-miterlimit="10"/>
<path d="M3361.85 0V3508.62" stroke="black" stroke-width="10" stroke-miterlimit="10"/>
<path d="M0 3361.85H3508.62" stroke="black" stroke-width="10" stroke-miterlimit="10"/>
<path d="M0 3215.08H3508.62" stroke="black" stroke-width="10" stroke-miterlimit="10"/>
<path d="M0 3068.31H3508.62" stroke="black" stroke-width="10" stroke-miterlimit="10"/>
<path d="M0 2924.31H3508.62" stroke="black" stroke-width="10" stroke-miterlimit="10"/>
<path d="M0 2777.54H3508.62" stroke="black" stroke-width="10" stroke-miterlimit="10"/>
<path d="M0 2630.77H3508.62" stroke="black" stroke-width="10" stroke-miterlimit="10"/>
<path d="M0 2484H3508.62" stroke="black" stroke-width="10" stroke-miterlimit="10"/>
<path d="M0 2337.23H3508.62" stroke="black" stroke-width="10" stroke-miterlimit="10"/>
<path d="M0 2193.23H3508.62" stroke="black" stroke-width="10" stroke-miterlimit="10"/>
<path d="M0 2046.46H3508.62" stroke="black" stroke-width="10" stroke-miterlimit="10"/>
<path d="M0 1899.69H3508.62" stroke="black" stroke-width="10" stroke-miterlimit="10"/>
<path d="M0 1752.92H3508.62" stroke="black" stroke-width="10" stroke-miterlimit="10"/>
<path d="M0 1606.15H3508.62" stroke="black" stroke-width="10" stroke-miterlimit="10"/>
<path d="M0 1462.15H3508.62" stroke="black" stroke-width="10" stroke-miterlimit="10"/>
<path d="M0 1315.38H3508.62" stroke="black" stroke-width="10" stroke-miterlimit="10"/>
<path d="M0 1168.62H3508.62" stroke="black" stroke-width="10" stroke-miterlimit="10"/>
<path d="M0 1021.85H3508.62" stroke="black" stroke-width="10" stroke-miterlimit="10"/>
<path d="M0 875.077H3508.62" stroke="black" stroke-width="10" stroke-miterlimit="10"/>
<path d="M0 731.077H3508.62" stroke="black" stroke-width="10" stroke-miterlimit="10"/>
<path d="M0 584.308H3508.62" stroke="black" stroke-width="10" stroke-miterlimit="10"/>
<path d="M0 437.539H3508.62" stroke="black" stroke-width="10" stroke-miterlimit="10"/>
<path d="M0 290.769H3508.62" stroke="black" stroke-width="10" stroke-miterlimit="10"/>
<path d="M0 146.769H3508.62" stroke="black" stroke-width="10" stroke-miterlimit="10"/>
</svg>
